<svg xmlns="http://www.w3.org/2000/svg" viewBox="0 0 100 100" width="64" height="64">
  <!-- 像素风格背景 -->
  <rect width="100" height="100" fill="#007AFF"/>
  
  <!-- 像素边框 -->
  <rect x="0" y="0" width="10" height="10" fill="#0066CC"/>
  <rect x="10" y="0" width="10" height="10" fill="#0066CC"/>
  <rect x="20" y="0" width="10" height="10" fill="#0066CC"/>
  <rect x="30" y="0" width="10" height="10" fill="#0066CC"/>
  <rect x="40" y="0" width="10" height="10" fill="#0066CC"/>
  <rect x="50" y="0" width="10" height="10" fill="#0066CC"/>
  <rect x="60" y="0" width="10" height="10" fill="#0066CC"/>
  <rect x="70" y="0" width="10" height="10" fill="#0066CC"/>
  <rect x="80" y="0" width="10" height="10" fill="#0066CC"/>
  <rect x="90" y="0" width="10" height="10" fill="#0066CC"/>
  
  <rect x="0" y="90" width="10" height="10" fill="#0066CC"/>
  <rect x="10" y="90" width="10" height="10" fill="#0066CC"/>
  <rect x="20" y="90" width="10" height="10" fill="#0066CC"/>
  <rect x="30" y="90" width="10" height="10" fill="#0066CC"/>
  <rect x="40" y="90" width="10" height="10" fill="#0066CC"/>
  <rect x="50" y="90" width="10" height="10" fill="#0066CC"/>
  <rect x="60" y="90" width="10" height="10" fill="#0066CC"/>
  <rect x="70" y="90" width="10" height="10" fill="#0066CC"/>
  <rect x="80" y="90" width="10" height="10" fill="#0066CC"/>
  <rect x="90" y="90" width="10" height="10" fill="#0066CC"/>
  
  <rect x="0" y="10" width="10" height="10" fill="#0066CC"/>
  <rect x="0" y="20" width="10" height="10" fill="#0066CC"/>
  <rect x="0" y="30" width="10" height="10" fill="#0066CC"/>
  <rect x="0" y="40" width="10" height="10" fill="#0066CC"/>
  <rect x="0" y="50" width="10" height="10" fill="#0066CC"/>
  <rect x="0" y="60" width="10" height="10" fill="#0066CC"/>
  <rect x="0" y="70" width="10" height="10" fill="#0066CC"/>
  <rect x="0" y="80" width="10" height="10" fill="#0066CC"/>
  
  <rect x="90" y="10" width="10" height="10" fill="#0066CC"/>
  <rect x="90" y="20" width="10" height="10" fill="#0066CC"/>
  <rect x="90" y="30" width="10" height="10" fill="#0066CC"/>
  <rect x="90" y="40" width="10" height="10" fill="#0066CC"/>
  <rect x="90" y="50" width="10" height="10" fill="#0066CC"/>
  <rect x="90" y="60" width="10" height="10" fill="#0066CC"/>
  <rect x="90" y="70" width="10" height="10" fill="#0066CC"/>
  <rect x="90" y="80" width="10" height="10" fill="#0066CC"/>
  
  <!-- 像素化游戏手柄 -->
  <rect x="30" y="30" width="40" height="20" fill="#005BB5"/>
  <rect x="20" y="40" width="60" height="30" fill="#005BB5"/>
  
  <!-- 像素化按钮 -->
  <rect x="30" y="50" width="10" height="10" fill="#FFFFFF"/>
  <rect x="60" y="50" width="10" height="10" fill="#FFFFFF"/>
  
  <!-- 像素文字"C" -->
  <rect x="40" y="40" width="20" height="10" fill="#FFFFFF"/>
  <rect x="40" y="50" width="10" height="10" fill="#FFFFFF"/>
  <rect x="40" y="60" width="20" height="10" fill="#FFFFFF"/>
</svg> 